HIERARCHY
ROOT Hips
{
  OFFSET 0 89.5177 0.535
  CHANNELS 6 Xposition Yposition Zposition Zrotation Xrotation Yrotation
  JOINT Spine
  {
    OFFSET 12.0259 -0.162855 1.69034e-005
    CHANNELS 3 Zrotation Xrotation Yrotation
    JOINT Spine1
    {
      OFFSET 15.3169 -0.0121922 0
      CHANNELS 3 Zrotation Xrotation Yrotation
      JOINT Spine2
      {
        OFFSET 15.3176 -0.0121908 0
        CHANNELS 3 Zrotation Xrotation Yrotation
        JOINT Neck
        {
          OFFSET 19.9142 1.56338 0
          CHANNELS 3 Zrotation Xrotation Yrotation
          JOINT Head
          {
            OFFSET 6.92651 0 0
            CHANNELS 3 Zrotation Xrotation Yrotation
            End Site
            {
              OFFSET 20.7666 0 0
            }
          }
          JOINT LeftShoulder
          {
            OFFSET -6.20654 0.708824 7.28219
            CHANNELS 3 Zrotation Xrotation Yrotation
            JOINT LeftArm
            {
              OFFSET 14.108 0 -1.52588e-005
              CHANNELS 3 Zrotation Xrotation Yrotation
              JOINT LeftForeArm
              {
                OFFSET 28.5802 0 0
                CHANNELS 3 Zrotation Xrotation Yrotation
                JOINT LeftHand
                {
                  OFFSET 27.092 0 0
                  CHANNELS 3 Zrotation Xrotation Yrotation
                  End Site
                  {
                    OFFSET 9.55928 -0.186424 0.145352
                  }
                }
              }
            }
          }
          JOINT RightShoulder
          {
            OFFSET -6.20654 0.708866 -7.28218
            CHANNELS 3 Zrotation Xrotation Yrotation
            JOINT RightArm
            {
              OFFSET 14.108 0 1.52588e-005
              CHANNELS 3 Zrotation Xrotation Yrotation
              JOINT RightForeArm
              {
                OFFSET 28.5802 0 0
                CHANNELS 3 Zrotation Xrotation Yrotation
                JOINT RightHand
                {
                  OFFSET 27.092 0 0
                  CHANNELS 3 Zrotation Xrotation Yrotation
                  End Site
                  {
                    OFFSET 9.55929 -0.186417 -0.145354
                  }
                }
              }
            }
          }
        }
      }
    }
  }
  JOINT LeftUpLeg
  {
    OFFSET 0.005 -0.535 8.837
    CHANNELS 3 Zrotation Xrotation Yrotation
    JOINT LeftLeg
    {
      OFFSET 39.9035 0 0
      CHANNELS 3 Zrotation Xrotation Yrotation
      JOINT LeftFoot
      {
        OFFSET 39.6689 0 0
        CHANNELS 3 Zrotation Xrotation Yrotation
        JOINT LeftToe
        {
          OFFSET 10.1624 13.6296 0
          CHANNELS 3 Zrotation Xrotation Yrotation
          End Site
          {
            OFFSET 8.38147 0 0
          }
        }
      }
    }
  }
  JOINT RightUpLeg
  {
    OFFSET 0.005 -0.535 -8.837
    CHANNELS 3 Zrotation Xrotation Yrotation
    JOINT RightLeg
    {
      OFFSET 39.9035 0 0
      CHANNELS 3 Zrotation Xrotation Yrotation
      JOINT RightFoot
      {
        OFFSET 39.6689 0 0
        CHANNELS 3 Zrotation Xrotation Yrotation
        JOINT RightToe
        {
          OFFSET 10.1624 13.6296 0
          CHANNELS 3 Zrotation Xrotation Yrotation
          End Site
          {
            OFFSET 8.38147 0 0
          }
        }
      }
    }
  }
}
MOTION
Frames:	12
Frame Time:	0.0333333
431.547 87.9985 -24.6503 157.758 -83.4621 67.2171 -1.59973 -0.252713 -0.972209 -3.20355 -0.477689 -1.95093 -3.20355 -0.477688 -1.95094 -8.30748e-012 -9.0191e-006 -5.27751e-005 16.3019 4.35524 -2.38459 178.112 -14.3188 -97.5923 -16.1877 -50.9206 2.69715 -8.34251e-006 -3.18055e-015 -7.95139e-016 -41.2334 -26.4364 -30.654 178.492 8.36692 100.252 78.3 66.1874 -87.0862 -1.53117 9.93923e-017 -0 -38.2036 15.2459 22.2394 -13.3088 4.33583 -179.318 -24.4527 -7.95139e-016 3.97569e-016 19.6527 5.33006 -2.65442 90 -8.69683e-017 -1.98785e-016 -10.6317 -5.25301 -179.401 -19.26 3.97569e-016 1.98785e-016 14.6413 -1.73344 -0.406299 90 -1.87695e-017 -1.98785e-016 
431.472 88.0085 -24.7119 157.854 -83.308 67.2995 -1.61272 -0.262681 -0.968009 -3.22969 -0.497517 -1.94286 -3.22969 -0.497517 -1.94287 -8.30708e-012 -9.0191e-006 -5.27751e-005 16.3047 4.23244 -2.37905 178.1 -14.3258 -97.6359 -16.2997 -51.1667 2.58681 -8.38294e-006 -6.36111e-015 3.97569e-016 -41.2733 -26.3451 -30.5805 178.476 8.41979 100.296 78.0464 66.1481 -86.933 -1.65228 9.93923e-017 3.97569e-016 -38.2892 15.2675 22.273 -13.3566 4.27204 -179.377 -24.3405 1.59028e-015 3.97569e-016 19.6213 5.31151 -2.60718 90 6.21202e-016 -3.97569e-016 -10.5918 -5.27827 -179.425 -18.9855 3.97569e-016 -9.93923e-017 14.5534 -1.72208 -0.481071 90 -1.41651e-018 1.98785e-016 
431.392 88.0183 -24.7819 158.117 -83.1849 67.5557 -1.62347 -0.264258 -0.966486 -3.25125 -0.500452 -1.94531 -3.25125 -0.500452 -1.94532 -8.30788e-012 -9.0191e-006 -5.27751e-005 16.3052 4.14009 -2.33301 178.069 -14.3446 -97.7482 -16.3847 -51.3536 2.5158 -8.42179e-006 0 -3.97569e-016 -41.2723 -26.1884 -30.6124 178.464 8.44167 100.348 78.1571 66.1784 -87.0342 -1.60242 1.98785e-016 3.97569e-016 -38.3822 15.1508 22.2544 -13.3693 4.26319 -179.432 -24.2264 -7.95139e-016 7.95139e-016 19.5994 5.29144 -2.58115 90 -1.61513e-016 1.98785e-016 -10.5562 -5.29617 -179.462 -18.7629 0 -9.93923e-017 14.4928 -1.73549 -0.49974 90 5.53561e-019 1.98785e-016 
431.307 88.0246 -24.8556 158.554 -83.0734 67.9861 -1.63186 -0.26284 -0.965363 -3.26815 -0.505189 -1.93777 -3.26815 -0.505188 -1.93778 -8.30748e-012 -9.0191e-006 -5.27751e-005 16.3148 4.12284 -2.35091 178.047 -14.373 -97.8222 -16.435 -51.3458 2.41646 -8.45947e-006 -6.36111e-015 -1.98785e-016 -41.25 -26.1967 -30.5505 178.441 8.48238 100.454 78.5287 66.1488 -87.4209 -1.65341 0 -0 -38.1918 15.0947 22.1771 -13.3613 4.21524 -179.512 -24.0722 7.95139e-016 -0 19.5203 5.20736 -2.47648 90 7.45443e-017 3.97569e-016 -10.5666 -5.32549 -179.516 -18.6363 3.97569e-016 -0 14.4797 -1.7643 -0.443961 90 -4.58774e-020 -1.98785e-016 
431.223 88.0264 -24.9351 159.22 -82.9953 68.651 -1.63687 -0.260206 -0.963561 -3.27819 -0.502566 -1.93415 -3.27819 -0.502565 -1.93416 -8.30748e-012 -9.0191e-006 -5.27751e-005 16.3243 4.1465 -2.40834 178.024 -14.4291 -97.8823 -16.4921 -51.5144 2.30634 -8.49642e-006 0 -5.96354e-016 -41.3626 -26.1468 -30.6441 178.418 8.54052 100.534 78.8659 66.131 -87.8033 -1.67134 -9.93923e-017 1.98785e-016 -38.2453 14.9097 22.019 -13.3848 4.27205 -179.562 -24.0462 -3.18055e-015 -7.95139e-016 19.5927 5.23772 -2.47255 90 -5.8393e-016 1.98785e-016 -10.5764 -5.2837 -179.569 -18.5567 0 -0 14.4938 -1.77735 -0.377037 90 -1.84836e-021 -1.98785e-016 
431.131 88.0233 -25.0136 159.911 -82.9341 69.3297 -1.63404 -0.258788 -0.95839 -3.27391 -0.489612 -1.92485 -3.27391 -0.489612 -1.92486 -8.30748e-012 -9.0191e-006 -5.27751e-005 16.2675 4.18365 -2.4649 178.006 -14.4673 -97.934 -16.5446 -51.645 2.18555 -8.53309e-006 -6.36111e-015 3.97569e-016 -41.2881 -26.0162 -30.5883 178.402 8.57266 100.603 79.2199 66.1025 -88.1455 -1.7225 1.98785e-016 -5.96354e-016 -38.3504 14.7544 21.9577 -13.412 4.33993 -179.593 -24.0687 -7.95139e-016 -0 19.6995 5.2845 -2.47985 90 -5.2181e-016 1.98785e-016 -10.5901 -5.2176 -179.617 -18.51 3.97569e-016 -9.93923e-017 14.5213 -1.76723 -0.304807 90 5.40765e-020 -5.96354e-016 
431.046 88.0306 -25.1057 160.556 -82.8743 69.976 -1.63125 -0.259395 -0.954954 -3.26664 -0.491004 -1.91674 -3.26664 -0.491004 -1.91675 -8.30728e-012 -9.0191e-006 -5.27751e-005 16.2261 4.21608 -2.52721 177.988 -14.4883 -97.9914 -16.4152 -51.766 2.21492 -8.56989e-006 6.36111e-015 5.96354e-016 -41.2668 -25.9135 -30.4744 178.391 8.60055 100.635 79.1977 66.118 -88.1676 -1.72895 -1.98785e-016 -1.98785e-016 -38.3064 14.7212 21.8615 -13.3674 4.35968 -179.649 -23.9463 0 -0 19.6345 5.27783 -2.48693 90 5.09386e-016 -0 -10.542 -5.14652 -179.667 -18.3705 -1.19271e-015 1.98785e-016 14.5149 -1.75383 -0.23846 90 5.4977e-021 -0 
430.957 88.044 -25.2027 161.498 -82.8109 70.9424 -1.64345 -0.24881 -0.957256 -3.29087 -0.469568 -1.92109 -3.29087 -0.469568 -1.9211 -8.30748e-012 -9.0191e-006 -5.27751e-005 16.3279 4.36189 -2.63518 177.982 -14.5841 -97.9665 -16.4805 -51.4569 2.21161 -8.60726e-006 -9.54166e-015 -1.98785e-016 -41.3125 -26.0956 -30.6646 178.383 8.66096 100.616 79.1873 66.146 -88.2258 -1.71641 1.98785e-016 -3.97569e-016 -38.2156 14.7083 21.8063 -13.2877 4.44377 -179.723 -23.7603 -7.95139e-016 -0 19.5971 5.27433 -2.4844 90 5.71506e-016 1.98785e-016 -10.5006 -5.01296 -179.735 -18.2045 -3.97569e-016 9.93923e-017 14.4923 -1.70989 -0.17002 90 2.52136e-019 -0 
430.867 88.054 -25.3049 162.413 -82.7424 71.8841 -1.67068 -0.244099 -0.965304 -3.34527 -0.459455 -1.93715 -3.34527 -0.459454 -1.93716 -8.30688e-012 -9.0191e-006 -5.27751e-005 16.597 4.582 -2.70721 177.973 -14.6379 -97.9723 -16.4586 -51.6456 2.27542 -8.64565e-006 0 -1.98785e-016 -41.2643 -26.0421 -30.5636 178.375 8.71942 100.597 79.3324 66.1081 -88.491 -1.71079 1.98785e-016 -0 -38.3794 14.84 21.905 -13.2028 4.50702 -179.809 -23.5708 1.59028e-015 7.95139e-016 19.5802 5.26087 -2.436 90 4.34841e-016 -0 -10.4733 -4.94918 -179.815 -18.0665 3.97569e-016 -9.93923e-017 14.4864 -1.73407 -0.098877 90 -1.78628e-019 -1.98785e-016 
430.789 88.053 -25.4016 162.758 -82.6614 72.233 -1.69539 -0.25336 -0.973833 -3.39488 -0.4773 -1.95457 -3.39488 -0.4773 -1.95458 -8.30788e-012 -9.0191e-006 -5.27751e-005 16.8289 4.92771 -2.72923 177.961 -14.6851 -97.993 -16.3748 -51.8856 2.4033 -8.68547e-006 9.54166e-015 -0 -41.1397 -26.026 -30.4693 178.378 8.76666 100.523 79.3974 66.0748 -88.6518 -1.75937 0 -1.98785e-016 -38.3362 14.7053 21.8267 -13.2149 4.61275 -179.849 -23.5673 0 -0 19.6801 5.3213 -2.47497 90 3.47873e-016 5.96354e-016 -10.466 -4.95716 -179.875 -17.999 0 9.93923e-017 14.5186 -1.7512 -0.0358386 90 -1.38864e-019 -0 
430.721 88.0528 -25.4905 162.888 -82.605 72.3629 -1.70444 -0.263503 -0.981081 -3.41318 -0.497209 -1.9694 -3.41318 -0.497208 -1.96941 -8.30788e-012 -9.0191e-006 -5.27751e-005 16.9326 5.52538 -2.79936 177.972 -14.7135 -97.9361 -16.3877 -51.8473 2.42442 -8.72716e-006 6.36111e-015 5.96354e-016 -41.1653 -25.9855 -30.4933 178.373 8.84856 100.462 78.9218 65.9963 -88.3391 -1.78665 0 -0 -38.3336 14.8806 21.8554 -13.1672 4.57559 -179.902 -23.4848 7.95139e-016 3.97569e-016 19.6617 5.29963 -2.45098 90 1.98785e-016 -5.96354e-016 -10.4132 -4.90948 -179.917 -17.913 3.97569e-016 9.93923e-017 14.5456 -1.71181 0.0177262 90 3.53559e-020 -1.98785e-016 
430.66 88.0481 -25.5771 162.982 -82.5881 72.4586 -1.7016 -0.276281 -0.995148 -3.40779 -0.522387 -1.9979 -3.40779 -0.522387 -1.99791 -8.30768e-012 -9.0191e-006 -5.27751e-005 16.8407 6.64478 -2.88076 177.969 -14.7517 -97.927 -16.273 -51.9172 2.57358 -8.77117e-006 6.36111e-015 -3.97569e-016 -41.114 -26.0402 -30.5379 178.381 8.92021 100.328 78.5683 65.898 -88.128 -1.85931 4.96962e-017 -1.98785e-016 -38.2415 15.1228 21.9023 -13.1081 4.56338 -179.947 -23.4594 2.38542e-015 7.95139e-016 19.6851 5.28266 -2.45697 90 3.72721e-017 1.98785e-016 -10.3582 -4.90356 -179.961 -17.8831 3.97569e-016 9.93923e-017 14.5917 -1.70683 0.0664609 90 -2.29576e-019 3.97569e-016 
